<svg width="44" height="40" viewBox="0 0 44 40" fill="none" xmlns="http://www.w3.org/2000/svg">
<path d="M21.9541 39.8305C21.9541 39.8305 21.9535 39.831 21.9541 39.8305C22.0075 39.7971 22.0642 39.7665 22.1154 39.7292C28.9764 34.744 35.8369 29.7594 42.6968 24.7726C43.3591 24.2907 43.5787 23.5925 43.3257 22.8085C42.8291 21.2696 42.3348 19.7295 41.8287 18.1934C41.5284 17.2814 41.2654 16.3579 40.9223 15.4599C40.9184 15.4409 40.9145 15.4226 40.9101 15.4037C40.9028 15.3681 40.8984 15.3313 40.8873 15.2968C39.3063 10.4252 37.7248 5.55349 36.1427 0.682376C35.9926 0.220023 35.7223 0.00136572 35.3125 0.000252957C34.8971 -0.00141619 34.6229 0.233933 34.47 0.7063C32.8812 5.60468 31.2908 10.5019 29.701 15.3998L29.6876 15.4031C24.4493 15.4025 19.2109 15.4025 13.9725 15.4025C13.908 15.4025 13.8435 15.4087 13.779 15.412C13.769 15.4003 13.7579 15.3987 13.7445 15.4059C13.7045 15.2924 13.6622 15.18 13.625 15.0659C12.0646 10.2655 10.5053 5.46503 8.94383 0.665128C8.79535 0.208896 8.51508 -0.00753638 8.1008 0.000809337C7.69763 0.00859867 7.4257 0.245061 7.2789 0.699067C6.04382 4.51584 4.80597 8.33206 3.57089 12.1494C3.22111 13.2304 2.87912 14.3143 2.53323 15.397L2.52378 15.4042C1.71467 17.8812 0.901665 20.3571 0.0981163 22.8364C-0.152124 23.6081 0.0819897 24.293 0.735394 24.7703C1.73691 25.5025 2.74065 26.2314 3.74384 26.9614C8.94105 30.7403 14.1383 34.5192 19.3366 38.2965C20.0545 38.8184 20.7807 39.3297 21.5025 39.8455L21.4998 39.8405C21.522 39.8594 21.5443 39.8783 21.5665 39.8972C21.5999 39.9178 21.6332 39.9389 21.6666 39.9595L21.6649 39.9551C21.6838 40.0079 21.7116 40.0152 21.7489 39.9707L21.7589 39.969C21.7884 39.949 21.8179 39.9289 21.8468 39.9089C21.8835 39.8822 21.9191 39.8566 21.9541 39.8305Z" fill="#FEFEFE"/>
<path d="M13.7783 15.412C13.8428 15.4087 13.9073 15.4026 13.9718 15.4026C19.2102 15.4026 24.4486 15.4031 29.6869 15.4031C29.3533 16.4503 29.023 17.4985 28.6848 18.5439C28.1705 20.1341 27.65 21.722 27.1334 23.311C26.396 25.5777 25.6614 27.8455 24.9229 30.1122C24.4391 31.5961 23.9481 33.0771 23.4643 34.561C22.9888 36.0187 22.51 37.4748 22.0513 38.9381C21.945 39.2774 21.7782 39.6029 21.7593 39.9685C21.7593 39.9685 21.7493 39.9701 21.7487 39.9701C21.7209 39.9646 21.6926 39.9596 21.6648 39.9546L21.6664 39.959C21.6053 39.4794 21.4062 39.0382 21.2638 38.5825C20.7884 37.0669 20.2857 35.5603 19.7946 34.0497C19.1095 31.9416 18.4261 29.8329 17.7416 27.7248C17.2772 26.2937 16.8129 24.8622 16.3486 23.4312C15.6129 21.1645 14.8744 18.8989 14.1442 16.6305C14.0141 16.2266 13.8289 15.8393 13.7783 15.412Z" fill="#F52E0F"/>
<path d="M13.7791 15.412C13.8297 15.8393 14.0154 16.2265 14.145 16.6293C14.8752 18.8977 15.6136 21.1633 16.3493 23.43C16.8137 24.861 17.278 26.2925 17.7424 27.7235C18.4263 29.8317 19.1103 31.9404 19.7954 34.0485C20.2865 35.5591 20.7892 37.0657 21.2646 38.5813C21.4075 39.0364 21.6061 39.4776 21.6672 39.9578C21.6339 39.9372 21.6005 39.9161 21.5671 39.8955C21.5449 39.8766 21.5226 39.8577 21.5004 39.8387L21.5032 39.8437C21.4921 39.8003 21.4932 39.748 21.4682 39.7152C21.1428 39.2907 20.8147 38.8679 20.4855 38.4461C19.4579 37.1303 18.428 35.8167 17.402 34.5003C16.7275 33.6345 16.0596 32.7632 15.3851 31.8981C14.4041 30.6395 13.4182 29.3855 12.4373 28.1269C11.5809 27.0286 10.7306 25.9259 9.87425 24.827C8.89386 23.5685 7.91014 22.3127 6.92753 21.0559C6.2402 20.1768 5.55065 19.2994 4.86499 18.4186C4.08313 17.4144 3.30405 16.4079 2.52441 15.4025L2.53387 15.3953C2.58892 15.3997 2.64453 15.4075 2.69958 15.4075C6.38089 15.4069 10.0628 15.4058 13.7441 15.4047C13.7574 15.3986 13.7691 15.4008 13.7791 15.412Z" fill="#FE6300"/>
<path d="M21.7598 39.9683C21.7787 39.6033 21.9455 39.2773 22.0517 38.9379C22.5099 37.4752 22.9893 36.0186 23.4647 34.5608C23.9485 33.077 24.4396 31.5959 24.9234 30.112C25.6618 27.8459 26.3964 25.5781 27.1338 23.3108C27.6504 21.7218 28.1709 20.1339 28.6853 18.5438C29.0234 17.4983 29.3537 16.4501 29.6874 15.403L29.7007 15.3997C33.4371 15.4008 37.1734 15.4024 40.9098 15.4036C40.9137 15.4225 40.9176 15.4408 40.922 15.4597C40.8737 15.502 40.8164 15.5371 40.778 15.5872C39.8266 16.8095 38.8801 18.0363 37.9258 19.257C36.4883 21.0953 35.0431 22.9275 33.6067 24.7663C32.3238 26.4093 31.052 28.0607 29.7702 29.7042C28.42 31.4351 27.0626 33.1599 25.7113 34.8897C24.6042 36.3068 23.4959 37.7233 22.4009 39.1499C22.2374 39.363 21.9917 39.5316 21.9533 39.8303H21.9538C21.8988 39.8298 21.8593 39.8492 21.8476 39.9082C21.8187 39.9283 21.7892 39.9483 21.7598 39.9683Z" fill="#FE6300"/>
<path d="M2.52541 15.4036C3.3056 16.4089 4.08413 17.4154 4.86599 18.4197C5.55164 19.2999 6.2412 20.1773 6.92852 21.0569C7.91113 22.3138 8.89485 23.5696 9.87524 24.8281C10.7311 25.927 11.5819 27.0297 12.4383 28.128C13.4192 29.3865 14.4051 30.6406 15.3861 31.8991C16.0606 32.7649 16.7285 33.6356 17.403 34.5013C18.429 35.8177 19.4589 37.1319 20.4865 38.4472C20.8157 38.8689 21.1438 39.2912 21.4691 39.7163C21.4942 39.7491 21.4931 39.8014 21.5042 39.8448C20.7818 39.3285 20.0561 38.8177 19.3382 38.2959C14.1399 34.5186 8.94268 30.7396 3.74547 26.9607C2.74228 26.2313 1.73854 25.5019 0.737024 24.7697C0.0841757 24.2917 -0.149938 23.6068 0.0997462 22.8357C0.903295 20.3565 1.7163 17.8806 2.52541 15.4036Z" fill="#FE9E00"/>
<path d="M21.9541 39.831C21.9925 39.5323 22.2383 39.3642 22.4018 39.1506C23.4967 37.724 24.605 36.3075 25.7122 34.8904C27.0634 33.1606 28.4209 31.4358 29.771 29.7049C31.0528 28.0614 32.3252 26.41 33.6075 24.767C35.0439 22.9276 36.4892 21.096 37.9267 19.2577C38.8809 18.037 39.8274 16.8102 40.7788 15.5879C40.8178 15.5383 40.8745 15.5027 40.9229 15.4604C41.2654 16.3579 41.529 17.282 41.8293 18.1939C42.3353 19.7301 42.8291 21.2702 43.3263 22.8091C43.5793 23.5925 43.3596 24.2913 42.6973 24.7732C35.838 29.76 28.977 34.7446 22.1159 39.7298C22.0648 39.7671 22.008 39.7971 21.9541 39.831Z" fill="#FE9E00"/>
<path d="M13.7454 15.4059C10.064 15.407 6.38218 15.4081 2.70087 15.4086C2.64582 15.4086 2.59021 15.4009 2.53516 15.3964C2.88104 14.3137 3.22304 13.2299 3.57282 12.1488C4.80734 8.33148 6.04519 4.51582 7.28082 0.69849C7.42707 0.24504 7.69845 0.00857801 8.10161 0.000232303C8.5159 -0.00811341 8.79617 0.208319 8.94464 0.664551C10.5056 5.465 12.0654 10.2655 13.6258 15.0659C13.6631 15.18 13.7053 15.2924 13.7454 15.4059Z" fill="#F52E0F"/>
<path d="M40.9103 15.4041C37.1739 15.403 33.4375 15.4014 29.7012 15.4002C31.291 10.5024 32.8814 5.60461 34.4702 0.706788C34.6237 0.234421 34.8973 -0.000927904 35.3127 0.000741238C35.7225 0.00241038 35.9928 0.220512 36.1429 0.682864C37.725 5.55398 39.3065 10.4256 40.8875 15.2973C40.8986 15.3318 40.9025 15.3685 40.9103 15.4041Z" fill="#F52E0F"/>
<path d="M21.8477 39.9089C21.8588 39.8496 21.8991 39.83 21.9544 39.8306C21.9192 39.8569 21.8834 39.8826 21.8477 39.9089Z" fill="#FE9E00"/>
<path d="M21.5 39.8394C21.5224 39.8584 21.5447 39.8774 21.5671 39.8964C21.5447 39.8774 21.5224 39.8584 21.5 39.8394Z" fill="#FE9E00"/>
<path d="M21.665 39.9546C21.693 39.9596 21.7215 39.9652 21.7495 39.9703C21.712 40.015 21.6846 40.0077 21.665 39.9546Z" fill="#FE6300"/>
</svg>
