<svg id="Layer_1" data-name="Layer 1" xmlns="http://www.w3.org/2000/svg" viewBox="0 0 172 102.79"><path d="M0,68.77c.58-1.4,1.4-1.67,2.82-.93,3.61,1.9,7.17,3.91,10.83,5.69A166.5,166.5,0,0,0,49.23,86a176,176,0,0,0,22.91,3.68,163.38,163.38,0,0,0,20.75.65,167,167,0,0,0,32.85-4.41,174.69,174.69,0,0,0,26.76-8.65,4.55,4.55,0,0,1,2.3-.32,2.3,2.3,0,0,1,1.48,3.76A5.63,5.63,0,0,1,155,81.83a101.91,101.91,0,0,1-25.77,13.29,128.5,128.5,0,0,1-27.75,6.61c-3.87.48-7.78.64-11.67,1-.26,0-.52.07-.78.11H82.38a5.81,5.81,0,0,0-.71-.11,118.5,118.5,0,0,1-15-1.33,124.72,124.72,0,0,1-27.34-7.23,124.5,124.5,0,0,1-37-22.49C1.39,70.88.37,70.25,0,69.06Z" transform="translate(0 0)" style="fill:#ffa302"/><path d="M148.69,0c1.52.23,3.05.41,4.56.71a22.21,22.21,0,0,1,6.64,2.17A3.76,3.76,0,0,1,162,6.67c0,.74,0,1.49,0,2.24-.06,1.57-.85,2.13-2.34,1.62S156.59,9.26,155,8.82a25.22,25.22,0,0,0-12.65-.4A12.3,12.3,0,0,0,140.7,9c-4.3,1.75-4.53,7.8-.94,10.11a25.3,25.3,0,0,0,5.8,2.58c3.47,1.15,7,2.21,10.42,3.49a13.36,13.36,0,0,1,6.64,5c3.91,5.77,2.6,14.12-2.88,18.73a20.67,20.67,0,0,1-10.37,4.46,35.93,35.93,0,0,1-18.87-2.31,12.48,12.48,0,0,1-2-1.12,3,3,0,0,1-1.39-2.64c0-1,0-2.07,0-3.11,0-1.45.79-2,2.2-1.6.76.23,1.5.55,2.23.85A32.32,32.32,0,0,0,146,45.84a13.73,13.73,0,0,0,5.9-1.54A6.23,6.23,0,0,0,155,37a4.75,4.75,0,0,0-2.32-3.1,34.32,34.32,0,0,0-4.8-2.15c-3.19-1.1-6.46-2-9.64-3.09A15.42,15.42,0,0,1,129.63,22,13.46,13.46,0,0,1,133,4.22,20.13,20.13,0,0,1,143.85.11c.22,0,.43-.07.64-.11Z" transform="translate(0 0)" style="fill:#fff"/><path d="M172,70.36c-.24,1.7-.38,3.41-.73,5.08a37.7,37.7,0,0,1-7,15.87c-1.08,1.37-2.4,2.56-3.62,3.83a2,2,0,0,1-.23.18c-.75.52-1.5.64-1.93.25-.61-.56-.32-1.19-.1-1.81,1.49-4.2,3-8.38,4.44-12.62a38.76,38.76,0,0,0,1-5.17,6.26,6.26,0,0,0,0-1.37,3,3,0,0,0-2.44-3.08,28.48,28.48,0,0,0-4.57-.68,77.14,77.14,0,0,0-12.05.64l-3.45.37c-.59.06-1.22.11-1.53-.53a1.28,1.28,0,0,1,.54-1.65,28.37,28.37,0,0,1,3.74-2.32,34.88,34.88,0,0,1,13.85-3.25,35.94,35.94,0,0,1,10.34.88c.44.11.87.29,1.31.41a2.94,2.94,0,0,1,2.29,3,4.52,4.52,0,0,0,.12.64Z" transform="translate(0 0)" style="fill:#ffa302"/><path d="M73.91,41.51c.4-1.68.8-3.35,1.19-5Q78.87,20.54,82.63,4.6c.62-2.63,1.29-3.16,4-3.15,1.61,0,3.23,0,4.84.09a2.42,2.42,0,0,1,2.41,2c.44,1.65.83,3.32,1.22,5l7.71,32.65c.06.26.13.51.25,1,.13-.38.22-.59.27-.8q4.72-18.24,9.43-36.48c.09-.35.19-.7.31-1,.66-1.85,1.34-2.35,3.32-2.37,1.67,0,3.33,0,5,0,1.32,0,1.79.51,1.69,1.83a7.56,7.56,0,0,1-.31,1.56q-6.86,22-13.73,44c-.17.55-.37,1.09-.57,1.63a2.59,2.59,0,0,1-2.6,1.82c-2,0-4,0-6,0a2.46,2.46,0,0,1-2.53-2c-.55-2-1-4.11-1.53-6.18Q92.12,28.8,88.44,13.47a.58.58,0,0,0-.22-.35c-.24,1-.49,2-.72,3q-3.93,16.42-7.85,32.85c-.7,2.91-1.27,3.36-4.28,3.36H71.61c-2.38,0-3.07-.46-3.79-2.75-1.17-3.7-2.28-7.42-3.41-11.13L54.48,5.74a22.52,22.52,0,0,1-.62-2.38c-.21-1.11.29-1.86,1.33-1.88,2.15,0,4.29,0,6.44.05a2.23,2.23,0,0,1,2.22,1.66C64.43,5.11,65,7,65.45,9q4.08,16,8.13,32c0,.2.13.39.19.58Z" transform="translate(0 0)" style="fill:#fff"/><path d="M38.94,23.76c-.06-3.08.2-6.06-.51-9-.88-3.72-3.3-5.69-7-6.31A28,28,0,0,0,17.64,9.69c-1.18.4-2.35.86-3.53,1.28-.5.18-1,.37-1.51.51-1.43.39-2-.07-2.07-1.57,0-1,0-2.08,0-3.11a2.72,2.72,0,0,1,1.76-2.88c1.84-.78,3.68-1.58,5.57-2.2A35.31,35.31,0,0,1,30.56.14a29,29,0,0,1,6.91,1.1,14,14,0,0,1,10.29,11.3,37,37,0,0,1,.69,6.89c.1,5.64,0,11.29,0,16.94,0,1.29.12,2.6.25,3.89a17.46,17.46,0,0,0,2.19,6.09c.8,1.59.59,2.44-.88,3.43-1,.71-2.08,1.41-3.13,2.09-1.56,1-2.61,1-3.78-.53-1-1.32-1.89-2.79-2.8-4.21a14,14,0,0,1-.69-1.35,6.17,6.17,0,0,0-.51.5,21.07,21.07,0,0,1-14.44,7.21,19.41,19.41,0,0,1-8.2-.92A13.44,13.44,0,0,1,7.36,41.34a16.57,16.57,0,0,1,.88-9,15.32,15.32,0,0,1,9.28-8.7,25.76,25.76,0,0,1,10.88-1.4,61.75,61.75,0,0,1,9.86,1.48A4.61,4.61,0,0,0,38.94,23.76ZM28.72,29.1a17.2,17.2,0,0,0-5.85.73c-2.85,1-4.83,2.78-5.36,5.8a14.75,14.75,0,0,0-.06,4.3A6.42,6.42,0,0,0,23,45.72a15.32,15.32,0,0,0,11-2.19,9.5,9.5,0,0,0,4.71-6.88c.24-1.81.23-3.65.37-5.48.05-.64-.22-.88-.82-1A44.62,44.62,0,0,0,28.72,29.1Z" transform="translate(0 0)" style="fill:#fff"/></svg>