<svg width="227" height="334" viewBox="0 0 227 334" fill="none" xmlns="http://www.w3.org/2000/svg">
<path d="M134.898 206.4L192.529 239.689C206.607 247.821 206.607 268.142 192.529 276.274L134.898 309.562C121.479 317.314 104.942 317.314 91.5219 309.562L33.8914 276.274C19.8132 268.142 19.8132 247.821 33.8914 239.689L91.5219 206.4C104.942 198.649 121.479 198.649 134.898 206.4Z" stroke="url(#paint0_linear)" stroke-width="2.22366"/>
<path d="M134.898 179.716L192.529 213.005C206.607 221.137 206.607 241.458 192.529 249.59L134.898 282.878C121.479 290.63 104.942 290.63 91.5219 282.878L33.8914 249.59C19.8132 241.458 19.8132 221.137 33.8914 213.005L91.5219 179.716C104.942 171.965 121.479 171.965 134.898 179.716Z" stroke="url(#paint1_linear)" stroke-width="2.22366"/>
<path d="M135.455 152.069L193.085 185.358C199.976 189.338 203.931 196.45 204.19 203.857C204.211 204.461 204.201 244.458 204.194 265.359C204.192 273.092 200.171 280.244 193.578 284.285L124.824 326.426C117.693 330.796 108.713 330.796 101.583 326.426L32.83 284.284C26.238 280.243 22.218 273.094 22.2147 265.362C22.2062 244.822 22.1936 205.86 22.2204 204.229C22.2802 200.574 23.2441 196.882 25.2025 193.491C27.1534 190.114 29.9582 187.309 33.3355 185.358L90.966 152.069C104.73 144.119 121.691 144.119 135.455 152.069Z" fill="url(#paint2_linear)"/>
<path d="M135.454 152.07L193.085 185.358C199.976 189.339 203.93 196.45 204.189 203.857C204.212 204.512 215.611 106.03 220.148 66.8034C221.246 57.3068 216.143 48.234 207.487 44.1778L122.638 4.42086C116.659 1.61974 109.746 1.6198 103.768 4.42099L18.9015 44.1873C10.2549 48.2389 5.15356 57.2988 6.23895 66.7856C10.7589 106.292 22.1906 206.01 22.2199 204.229C22.2797 200.574 23.2436 196.882 25.2021 193.491C27.1529 190.114 29.9577 187.309 33.335 185.358L90.9655 152.07C104.73 144.119 121.69 144.119 135.454 152.07Z" fill="url(#paint3_linear)"/>
<path opacity="0.620011" d="M90.9658 152.07C104.73 144.119 121.691 144.119 135.455 152.07L193.085 185.358C207.904 193.918 207.904 215.309 193.085 223.868L135.455 257.157C121.691 265.107 104.73 265.107 90.9657 257.157L33.3353 223.868C18.5161 215.309 18.5161 193.918 33.3353 185.358L90.9658 152.07Z" fill="url(#paint4_linear)"/>
<path d="M134.898 153.032L192.529 186.321C206.607 194.453 206.607 214.774 192.529 222.906L134.898 256.194C121.479 263.946 104.942 263.946 91.5219 256.194L33.8914 222.906C19.8132 214.774 19.8132 194.453 33.8914 186.321L91.5219 153.032C104.942 145.281 121.479 145.281 134.898 153.032Z" stroke="url(#paint5_linear)" stroke-width="2.22366"/>
<path d="M120.133 167.355L127.123 171.388L65.0985 208.053L58.1084 204.02L120.133 167.355Z" fill="url(#paint6_linear)"/>
<path fill-rule="evenodd" clip-rule="evenodd" d="M169.882 196.325L129.373 172.955L67.3481 209.62L107.857 232.99L169.882 196.325ZM117.614 192.071C117.225 191.528 117.58 191.031 118.406 190.961L138.343 189.285L138.597 189.277C139.701 189.299 140.832 190.028 140.687 190.686L138.036 202.69L137.982 202.831C137.761 203.226 137.012 203.381 136.197 203.174L135.933 203.095C135.169 202.827 134.656 202.305 134.755 201.857L137.047 191.479L119.812 192.929L119.561 192.937C118.796 192.92 117.963 192.56 117.614 192.071ZM100.729 202.528C99.8225 202.299 98.999 202.515 98.8891 203.012L96.2381 215.017L96.2266 215.17C96.2702 215.834 97.4903 216.509 98.582 216.418L118.52 214.741L118.753 214.708C119.409 214.572 119.661 214.121 119.312 213.632L119.178 213.474C118.728 213.016 117.856 212.711 117.113 212.773L99.8764 214.223L102.17 203.845L102.181 203.694C102.148 203.234 101.544 202.735 100.729 202.528ZM113.39 194.341C113.133 193.794 113.634 193.361 114.51 193.376C115.298 193.389 116.12 193.76 116.465 194.233L116.561 194.394L124.167 210.586C124.424 211.134 123.922 211.566 123.047 211.551C122.259 211.538 121.436 211.167 121.092 210.694L120.995 210.533L113.39 194.341Z" fill="url(#paint7_linear)"/>
<defs>
<linearGradient id="paint0_linear" x1="-16.2908" y1="199.765" x2="-15.1273" y2="345.36" gradientUnits="userSpaceOnUse">
<stop stop-color="#04FFD1"/>
<stop offset="1" stop-color="#7753FE"/>
</linearGradient>
<linearGradient id="paint1_linear" x1="-3.09096" y1="179.737" x2="-3.91309" y2="316.949" gradientUnits="userSpaceOnUse">
<stop stop-color="#04FFD1"/>
<stop offset="1" stop-color="#7753FE"/>
</linearGradient>
<linearGradient id="paint2_linear" x1="54.5684" y1="199.368" x2="54.5684" y2="320.143" gradientUnits="userSpaceOnUse">
<stop stop-color="#33FDD8"/>
<stop offset="1" stop-color="#13064F" stop-opacity="0.01"/>
</linearGradient>
<linearGradient id="paint3_linear" x1="205.942" y1="217.415" x2="205.942" y2="43.2683" gradientUnits="userSpaceOnUse">
<stop stop-color="#33FDD8"/>
<stop offset="1" stop-color="#13064F" stop-opacity="0.01"/>
</linearGradient>
<linearGradient id="paint4_linear" x1="8.12488" y1="139.23" x2="8.13539" y2="261.139" gradientUnits="userSpaceOnUse">
<stop stop-color="#33FDD8"/>
<stop offset="0.519346" stop-color="#7A4AFF"/>
<stop offset="1" stop-color="#45108A"/>
</linearGradient>
<linearGradient id="paint5_linear" x1="-16.2908" y1="146.397" x2="-15.1273" y2="291.993" gradientUnits="userSpaceOnUse">
<stop stop-color="#04FFD1"/>
<stop offset="1" stop-color="#7753FE"/>
</linearGradient>
<linearGradient id="paint6_linear" x1="174.779" y1="218.389" x2="163.208" y2="142.41" gradientUnits="userSpaceOnUse">
<stop stop-color="#33FDD8"/>
<stop offset="1" stop-color="white"/>
</linearGradient>
<linearGradient id="paint7_linear" x1="240.682" y1="248.237" x2="223.729" y2="136.122" gradientUnits="userSpaceOnUse">
<stop stop-color="#33FDD8"/>
<stop offset="1" stop-color="white"/>
</linearGradient>
</defs>
</svg>
