<svg width="227" height="334" viewBox="0 0 227 334" fill="none" xmlns="http://www.w3.org/2000/svg">
<path d="M134.898 206.4L192.529 239.689C206.607 247.821 206.607 268.142 192.529 276.274L134.898 309.562C121.479 317.314 104.942 317.314 91.5219 309.562L33.8914 276.274C19.8132 268.142 19.8132 247.821 33.8914 239.689L91.5219 206.4C104.942 198.649 121.479 198.649 134.898 206.4Z" stroke="url(#paint0_linear)" stroke-width="2.22366"/>
<path d="M134.898 179.716L192.529 213.005C206.607 221.137 206.607 241.458 192.529 249.59L134.898 282.878C121.479 290.63 104.942 290.63 91.5219 282.878L33.8914 249.59C19.8132 241.458 19.8132 221.137 33.8914 213.005L91.5219 179.716C104.942 171.965 121.479 171.965 134.898 179.716Z" stroke="url(#paint1_linear)" stroke-width="2.22366"/>
<path d="M135.455 152.069L193.085 185.358C199.976 189.338 203.931 196.45 204.19 203.857C204.211 204.461 204.201 244.458 204.194 265.359C204.192 273.092 200.171 280.244 193.578 284.285L124.824 326.426C117.693 330.796 108.713 330.796 101.583 326.426L32.83 284.284C26.238 280.243 22.218 273.094 22.2147 265.362C22.2062 244.822 22.1936 205.86 22.2204 204.229C22.2802 200.574 23.2441 196.882 25.2025 193.491C27.1534 190.114 29.9582 187.309 33.3355 185.358L90.966 152.069C104.73 144.119 121.691 144.119 135.455 152.069Z" fill="url(#paint2_linear)"/>
<path d="M135.454 152.07L193.085 185.358C199.976 189.339 203.93 196.45 204.189 203.857C204.212 204.512 215.611 106.03 220.148 66.8034C221.246 57.3068 216.143 48.234 207.487 44.1778L122.638 4.42086C116.659 1.61974 109.746 1.6198 103.768 4.42099L18.9015 44.1873C10.2549 48.2389 5.15356 57.2988 6.23895 66.7856C10.7589 106.292 22.1906 206.01 22.2199 204.229C22.2797 200.574 23.2436 196.882 25.2021 193.491C27.1529 190.114 29.9577 187.309 33.335 185.358L90.9655 152.07C104.73 144.119 121.69 144.119 135.454 152.07Z" fill="url(#paint3_linear)"/>
<path opacity="0.620011" d="M90.9658 152.07C104.73 144.119 121.691 144.119 135.455 152.07L193.085 185.358C207.904 193.918 207.904 215.309 193.085 223.868L135.455 257.157C121.691 265.107 104.73 265.107 90.9657 257.157L33.3353 223.868C18.5161 215.309 18.5161 193.918 33.3353 185.358L90.9658 152.07Z" fill="url(#paint4_linear)"/>
<path d="M134.898 153.032L192.529 186.321C206.607 194.453 206.607 214.774 192.529 222.906L134.898 256.194C121.479 263.946 104.942 263.946 91.5219 256.194L33.8914 222.906C19.8132 214.774 19.8132 194.453 33.8914 186.321L91.5219 153.032C104.942 145.281 121.479 145.281 134.898 153.032Z" stroke="url(#paint5_linear)" stroke-width="2.22366"/>
<path d="M123.197 173.595C123.514 173.045 124.058 172.555 124.838 172.161C128.165 170.481 134.532 171.166 139.058 173.692C142.006 175.337 143.447 177.357 143.173 179.03C135.833 177.705 123.655 179.03 118.563 184.505C113.699 181.738 106.911 181.118 104.558 181.094C101.717 173.692 112.895 168.739 123.197 173.595Z" fill="url(#paint6_linear)"/>
<path fill-rule="evenodd" clip-rule="evenodd" d="M119.324 187.672C108.548 181.985 92.3902 181.889 82.7699 187.556C74.7285 192.292 73.7397 199.591 79.4968 205.433C78.2954 205.889 77.1632 206.423 76.1208 207.037C67.6998 211.997 68.3293 220.246 77.5267 225.461C86.6056 230.609 100.639 230.877 109.103 226.114L112.057 224.374L108.324 214.245C103.924 214.469 99.2974 213.806 95.284 212.175C86.4081 208.569 83.8949 201.596 89.6705 196.602C95.4461 191.607 107.323 190.482 116.199 194.089C125.075 197.695 127.588 204.668 121.813 209.662C119.486 211.674 116.169 213.058 112.456 213.758L115.6 222.287L152.25 200.7C159.596 196.373 159.047 189.177 151.024 184.628C143 180.079 130.541 179.898 123.195 184.225C121.473 185.24 120.184 186.413 119.324 187.672ZM118.241 208.211C122.734 204.327 120.779 198.904 113.875 196.099C106.972 193.294 97.734 194.169 93.2419 198.053C88.7497 201.938 90.7045 207.361 97.6079 210.166C104.511 212.971 113.749 212.096 118.241 208.211Z" fill="url(#paint7_linear)"/>
<defs>
<linearGradient id="paint0_linear" x1="-16.2908" y1="199.765" x2="-15.1273" y2="345.36" gradientUnits="userSpaceOnUse">
<stop stop-color="#04FFD1"/>
<stop offset="1" stop-color="#7753FE"/>
</linearGradient>
<linearGradient id="paint1_linear" x1="-3.09096" y1="179.737" x2="-3.91309" y2="316.949" gradientUnits="userSpaceOnUse">
<stop stop-color="#04FFD1"/>
<stop offset="1" stop-color="#7753FE"/>
</linearGradient>
<linearGradient id="paint2_linear" x1="54.5684" y1="199.368" x2="54.5684" y2="320.143" gradientUnits="userSpaceOnUse">
<stop stop-color="#33FDD8"/>
<stop offset="1" stop-color="#13064F" stop-opacity="0.01"/>
</linearGradient>
<linearGradient id="paint3_linear" x1="205.942" y1="217.415" x2="205.942" y2="43.2683" gradientUnits="userSpaceOnUse">
<stop stop-color="#33FDD8"/>
<stop offset="1" stop-color="#13064F" stop-opacity="0.01"/>
</linearGradient>
<linearGradient id="paint4_linear" x1="8.12488" y1="139.23" x2="8.13539" y2="261.139" gradientUnits="userSpaceOnUse">
<stop stop-color="#33FDD8"/>
<stop offset="0.519346" stop-color="#7A4AFF"/>
<stop offset="1" stop-color="#45108A"/>
</linearGradient>
<linearGradient id="paint5_linear" x1="-16.2908" y1="146.397" x2="-15.1273" y2="291.993" gradientUnits="userSpaceOnUse">
<stop stop-color="#04FFD1"/>
<stop offset="1" stop-color="#7753FE"/>
</linearGradient>
<linearGradient id="paint6_linear" x1="241.893" y1="222.709" x2="237.813" y2="159.408" gradientUnits="userSpaceOnUse">
<stop stop-color="#33FDD8"/>
<stop offset="1" stop-color="white"/>
</linearGradient>
<linearGradient id="paint7_linear" x1="217.649" y1="241.808" x2="204.658" y2="151.184" gradientUnits="userSpaceOnUse">
<stop stop-color="#33FDD8"/>
<stop offset="1" stop-color="white"/>
</linearGradient>
</defs>
</svg>
