<svg width="227" height="334" viewBox="0 0 227 334" fill="none" xmlns="http://www.w3.org/2000/svg">
<path d="M134.898 206.4L192.529 239.689C206.607 247.821 206.607 268.142 192.529 276.274L134.898 309.562C121.479 317.314 104.942 317.314 91.5219 309.562L33.8914 276.274C19.8132 268.142 19.8132 247.821 33.8914 239.689L91.5219 206.4C104.942 198.649 121.479 198.649 134.898 206.4Z" stroke="url(#paint0_linear)" stroke-width="2.22366"/>
<path d="M134.898 179.716L192.529 213.005C206.607 221.137 206.607 241.458 192.529 249.59L134.898 282.878C121.479 290.63 104.942 290.63 91.5219 282.878L33.8914 249.59C19.8132 241.458 19.8132 221.137 33.8914 213.005L91.5219 179.716C104.942 171.965 121.479 171.965 134.898 179.716Z" stroke="url(#paint1_linear)" stroke-width="2.22366"/>
<path d="M135.455 152.069L193.085 185.358C199.976 189.338 203.931 196.45 204.19 203.857C204.211 204.461 204.201 244.458 204.194 265.359C204.192 273.092 200.171 280.244 193.578 284.285L124.824 326.426C117.693 330.796 108.713 330.796 101.583 326.426L32.83 284.284C26.238 280.243 22.218 273.094 22.2147 265.362C22.2062 244.822 22.1936 205.86 22.2204 204.229C22.2802 200.574 23.2441 196.882 25.2025 193.491C27.1534 190.114 29.9582 187.309 33.3355 185.358L90.966 152.069C104.73 144.119 121.691 144.119 135.455 152.069Z" fill="url(#paint2_linear)"/>
<path d="M135.454 152.07L193.085 185.358C199.976 189.339 203.93 196.45 204.189 203.857C204.212 204.512 215.611 106.03 220.148 66.8034C221.246 57.3068 216.143 48.234 207.487 44.1778L122.638 4.42086C116.659 1.61974 109.746 1.6198 103.768 4.42099L18.9015 44.1873C10.2549 48.2389 5.15356 57.2988 6.23895 66.7856C10.7589 106.292 22.1906 206.01 22.2199 204.229C22.2797 200.574 23.2436 196.882 25.2021 193.491C27.1529 190.114 29.9577 187.309 33.335 185.358L90.9655 152.07C104.73 144.119 121.69 144.119 135.454 152.07Z" fill="url(#paint3_linear)"/>
<path opacity="0.620011" d="M90.9658 152.07C104.73 144.119 121.691 144.119 135.455 152.07L193.085 185.358C207.904 193.918 207.904 215.309 193.085 223.868L135.455 257.157C121.691 265.107 104.73 265.107 90.9657 257.157L33.3353 223.868C18.5161 215.309 18.5161 193.918 33.3353 185.358L90.9658 152.07Z" fill="url(#paint4_linear)"/>
<path d="M134.898 153.032L192.529 186.321C206.607 194.453 206.607 214.774 192.529 222.906L134.898 256.194C121.479 263.946 104.942 263.946 91.5219 256.194L33.8914 222.906C19.8132 214.774 19.8132 194.453 33.8914 186.321L91.5219 153.032C104.942 145.281 121.479 145.281 134.898 153.032Z" stroke="url(#paint5_linear)" stroke-width="2.22366"/>
<path d="M123.197 173.595C123.514 173.045 124.058 172.555 124.838 172.161C128.165 170.481 134.532 171.166 139.058 173.692C142.006 175.337 143.447 177.357 143.173 179.03C135.833 177.705 123.655 179.03 118.563 184.505C113.699 181.738 106.911 181.118 104.558 181.094C101.717 173.692 112.895 168.739 123.197 173.595Z" fill="url(#paint6_linear)"/>
<path fill-rule="evenodd" clip-rule="evenodd" d="M82.7699 187.556C92.3902 181.889 108.548 181.985 119.324 187.672C120.184 186.413 121.473 185.24 123.195 184.225C130.541 179.898 143 180.079 151.024 184.628C159.047 189.177 159.596 196.373 152.25 200.7L109.103 226.114C100.639 230.877 86.6056 230.609 77.5267 225.461C68.3293 220.246 67.6998 211.997 76.1208 207.037C77.1632 206.423 78.2954 205.889 79.4968 205.433C73.7397 199.591 74.7285 192.292 82.7699 187.556ZM95.3943 192.634C95.2001 192.529 94.9175 192.538 94.7352 192.655L89.9491 195.731C89.7668 195.848 89.7417 196.036 89.8906 196.17L92.3624 198.391C91.7046 199.132 91.1902 199.914 90.82 200.718L86.6674 201.028C86.4173 201.047 86.2246 201.187 86.2179 201.355L86.0414 205.76C86.0349 205.928 86.2162 206.071 86.4647 206.094L90.5896 206.475C90.8952 207.285 91.3467 208.075 91.9448 208.827L89.2969 211.004C89.1374 211.135 89.1474 211.324 89.3203 211.444L93.857 214.599C94.0299 214.719 94.3115 214.733 94.5139 214.632L97.8738 212.949C98.9735 213.378 100.137 213.711 101.336 213.947L101.742 216.717C101.767 216.884 101.974 217.011 102.225 217.013L108.817 217.069C109.068 217.071 109.285 216.948 109.323 216.782L109.951 214.021C111.169 213.805 112.358 213.493 113.491 213.082L116.714 214.821C116.908 214.926 117.19 214.916 117.373 214.799L122.159 211.724C122.341 211.607 122.366 211.419 122.217 211.285L119.746 209.064C120.403 208.323 120.918 207.541 121.288 206.737L125.441 206.426C125.691 206.408 125.883 206.268 125.89 206.1L126.067 201.695C126.073 201.527 125.892 201.384 125.643 201.361L121.518 200.98C121.213 200.169 120.761 199.379 120.163 198.628L122.811 196.451C122.971 196.319 122.961 196.131 122.788 196.01L118.251 192.856C118.078 192.736 117.796 192.722 117.594 192.823L114.234 194.505C113.135 194.076 111.971 193.744 110.772 193.507L110.365 190.737C110.341 190.571 110.134 190.444 109.883 190.442L103.291 190.385C103.039 190.383 102.823 190.507 102.785 190.673L102.157 193.434C100.939 193.65 99.7505 193.962 98.6172 194.372L95.3943 192.634ZM97.1942 209.42C92.5558 206.195 92.7624 201.032 97.6557 197.888C102.549 194.744 110.276 194.81 114.914 198.035C119.553 201.26 119.346 206.423 114.453 209.567C109.559 212.711 101.833 212.645 97.1942 209.42ZM128.57 190.351L130.59 191.663C131.542 191.335 132.556 191.155 133.57 191.123L134.674 189.241L138.97 190.206L138.433 192.214C138.836 192.434 139.216 192.687 139.566 192.973C139.916 193.259 140.221 193.565 140.481 193.886L143.162 193.629L144.114 196.948L141.557 197.643C141.439 198.408 141.128 199.161 140.626 199.856L142.203 201.48L138.86 203.834L136.84 202.521C135.888 202.849 134.875 203.029 133.86 203.062L132.756 204.943L128.46 203.978L128.997 201.97C128.594 201.75 128.214 201.497 127.864 201.211C127.513 200.925 127.209 200.619 126.949 200.298L124.268 200.555L123.316 197.237L125.873 196.541C125.991 195.777 126.302 195.023 126.804 194.328L125.227 192.704L128.57 190.351ZM129.848 193.936C127.528 195.569 127.391 198.316 129.542 200.072C131.694 201.829 135.318 201.928 137.638 200.295C139.958 198.662 140.095 195.915 137.944 194.158C135.792 192.402 132.168 192.303 129.848 193.936Z" fill="url(#paint7_linear)"/>
<defs>
<linearGradient id="paint0_linear" x1="-16.2908" y1="199.765" x2="-15.1273" y2="345.36" gradientUnits="userSpaceOnUse">
<stop stop-color="#04FFD1"/>
<stop offset="1" stop-color="#7753FE"/>
</linearGradient>
<linearGradient id="paint1_linear" x1="-3.09096" y1="179.737" x2="-3.91309" y2="316.949" gradientUnits="userSpaceOnUse">
<stop stop-color="#04FFD1"/>
<stop offset="1" stop-color="#7753FE"/>
</linearGradient>
<linearGradient id="paint2_linear" x1="54.5684" y1="199.368" x2="54.5684" y2="320.143" gradientUnits="userSpaceOnUse">
<stop stop-color="#33FDD8"/>
<stop offset="1" stop-color="#13064F" stop-opacity="0.01"/>
</linearGradient>
<linearGradient id="paint3_linear" x1="205.942" y1="217.415" x2="205.942" y2="43.2683" gradientUnits="userSpaceOnUse">
<stop stop-color="#33FDD8"/>
<stop offset="1" stop-color="#13064F" stop-opacity="0.01"/>
</linearGradient>
<linearGradient id="paint4_linear" x1="8.12488" y1="139.23" x2="8.13539" y2="261.139" gradientUnits="userSpaceOnUse">
<stop stop-color="#33FDD8"/>
<stop offset="0.519346" stop-color="#7A4AFF"/>
<stop offset="1" stop-color="#45108A"/>
</linearGradient>
<linearGradient id="paint5_linear" x1="-16.2908" y1="146.397" x2="-15.1273" y2="291.993" gradientUnits="userSpaceOnUse">
<stop stop-color="#04FFD1"/>
<stop offset="1" stop-color="#7753FE"/>
</linearGradient>
<linearGradient id="paint6_linear" x1="241.893" y1="222.709" x2="237.813" y2="159.408" gradientUnits="userSpaceOnUse">
<stop stop-color="#33FDD8"/>
<stop offset="1" stop-color="white"/>
</linearGradient>
<linearGradient id="paint7_linear" x1="217.649" y1="241.808" x2="204.658" y2="151.184" gradientUnits="userSpaceOnUse">
<stop stop-color="#33FDD8"/>
<stop offset="1" stop-color="white"/>
</linearGradient>
</defs>
</svg>
